<svg xmlns="http://www.w3.org/2000/svg" version="1.1" xmlns:xlink="http://www.w3.org/1999/xlink" xmlns:svgjs="http://svgjs.dev/svgjs" viewBox="0 0 10.272369495215688 2.6105047394562755"><g transform="matrix(1,0,0,1,2.591611121895104,0.8260680294632081)"><g><path d=" M 0.08187743629176669 0.9583686805298591 L 0.08187743629176669 0.005369012215853397 L 0.4483125200237717 0.005369012215853397 Q 0.6066983803914515 0.005369012215853397 0.7134074981815409 0.0691260322791144 Q 0.8201166159716302 0.1328830523423753 0.8744778646571475 0.2409344231864281 Q 0.9288391133426647 0.3489857940304808 0.9288391133426647 0.4805265933188929 Q 0.9288391133426647 0.6254899231469389 0.8691088524412939 0.7328701674640099 Q 0.8093785915399231 0.840250411781081 0.7013272206958704 0.8993095461554701 Q 0.5932758498518176 0.9583686805298591 0.4483125200237717 0.9583686805298591 L 0.08187743629176669 0.9583686805298591 M 0.6630730086579139 0.4805265933188929 Q 0.6630730086579139 0.40670267535090654 0.6375702006326094 0.35099917361142596 Q 0.612067392607305 0.2952956718719453 0.5637462826646231 0.2644238516307874 Q 0.5154251727219411 0.23355203138962943 0.4483125200237717 0.23355203138962943 L 0.3436167818146274 0.23355203138962943 L 0.3436167818146274 0.7301856613560831 L 0.4483125200237717 0.7301856613560831 Q 0.5167674257759045 0.7301856613560831 0.5644174091916048 0.6979715880609618 Q 0.612067392607305 0.6657575147658406 0.6375702006326094 0.6087117599723965 Q 0.6630730086579139 0.5516660051789525 0.6630730086579139 0.4805265933188929 M 0.9905873416039737 0.47381532804907595 Q 0.9905873416039737 0.3865688795414557 1.0234725414260766 0.30267806366874395 Q 1.0563577412481797 0.2187872477960322 1.119443634784459 0.15033234204389934 Q 1.1825295283207382 0.08187743629176658 1.2731316094632668 0.040938718145883235 Q 1.3637336906057955 -1.1102230246251565e-16 1.4778252001926835 -1.1102230246251565e-16 Q 1.6147350116969492 -1.1102230246251565e-16 1.7167462437981666 0.05704575479344387 Q 1.818757475899384 0.11409150958688785 1.8684208388960295 0.20804922336432508 L 1.6684251338554847 0.3503280470844442 Q 1.6509758441539608 0.3033491901957256 1.6180906443318577 0.27784638217042124 Q 1.5852054445097545 0.2523435741451169 1.5469512324717982 0.2422766762403915 Q 1.5086970204338415 0.23220977833566603 1.4724561879768299 0.23220977833566603 Q 1.4160815597103678 0.23220977833566603 1.3751428415644844 0.25435695372606193 Q 1.334204123418601 0.27650412911645783 1.308030188866315 0.3127449615734693 Q 1.2818562543140288 0.3489857940304808 1.2691048503013767 0.3932801448112726 Q 1.2563534462887245 0.4375744955920645 1.2563534462887245 0.48186884637285626 Q 1.2563534462887245 0.5315322093695016 1.2711182298823218 0.5771688132042568 Q 1.2858830134759192 0.622805417039012 1.31407032760915 0.6583751229690418 Q 1.3422576417423815 0.6939448288990716 1.3831963598882648 0.7140786247085225 Q 1.4241350780341482 0.7342124205179733 1.475140694084757 0.7342124205179733 Q 1.5113815265417683 0.7342124205179733 1.5489646120527432 0.7228032695592845 Q 1.586547697563718 0.7113941186005956 1.6174195178048758 0.6858913105752913 Q 1.6482913380460338 0.6603885025499869 1.6643983746935946 0.6174364048231584 L 1.8778166102737734 0.7449504449496804 Q 1.849629296140542 0.8147476037557766 1.7838588964963362 0.8644109667524219 Q 1.71808849685213 0.9140743297490673 1.6348688075064 0.9402482643013534 Q 1.55164911816067 0.9664221988536394 1.4697716818689033 0.9664221988536394 Q 1.3637336906057955 0.9664221988536394 1.2758161155711936 0.9241412276537927 Q 1.1878985405365916 0.881860256453946 1.1241415204733307 0.8113919711208681 Q 1.0603845004100698 0.7409236857877902 1.0254859210070217 0.6530061107531884 Q 0.9905873416039737 0.5650885357185864 0.9905873416039737 0.47381532804907595 M 2.385178433716949 0.9664221988536394 Q 2.2764559363459145 0.9664221988536394 2.187867234784331 0.9254834807077561 Q 2.0992785332227473 0.8845447625618728 2.035521513159486 0.8154187302827582 Q 1.9717644930962253 0.7462926980036437 1.9375370402201588 0.6597173760230053 Q 1.9033095873440924 0.5731420540423666 1.9033095873440924 0.4805265933188929 Q 1.9033095873440924 0.3852266264874923 1.939550419801104 0.2993224310338355 Q 1.9757912522581154 0.21341823558017858 2.0408905253753398 0.14563445635502748 Q 2.105989798492564 0.07785067712987637 2.1952496265811297 0.03892533856493818 Q 2.2845094546696947 -1.1102230246251565e-16 2.3905474459328024 -1.1102230246251565e-16 Q 2.499269943303837 -1.1102230246251565e-16 2.5878586448654204 0.040938718145883235 Q 2.676447346427004 0.08187743629176658 2.7395332399632832 0.15167459509786274 Q 2.8026191334995625 0.2214717539039589 2.836846586375629 0.30804707588459745 Q 2.8710740392516954 0.394622397865236 2.8710740392516954 0.4858956055347464 Q 2.8710740392516954 0.5798533193121836 2.8355043333216656 0.6657575147658406 Q 2.799934627391636 0.7516617102194973 2.7348353542744115 0.8194454894446485 Q 2.669736081157187 0.8872292686697996 2.5811473795956035 0.9268257337617195 Q 2.49255867803402 0.9664221988536394 2.385178433716949 0.9664221988536394 M 2.1690756920288434 0.48321109942681967 Q 2.1690756920288434 0.5315322093695016 2.1824982225684773 0.5764976866772751 Q 2.195920753108111 0.6214631639850487 2.2227658141873787 0.6570328699150785 Q 2.249610875266647 0.6926025758451082 2.29054959341253 0.7134074981815408 Q 2.3314883115584135 0.7342124205179733 2.387862939824876 0.7342124205179733 Q 2.4442375680913377 0.7342124205179733 2.485847412764203 0.712736371654559 Q 2.527457257437068 0.6912603227911449 2.553631191989354 0.6543483638071517 Q 2.57980512654164 0.6174364048231584 2.592556530554292 0.572470927515385 Q 2.6053079345669445 0.5275054502076115 2.6053079345669445 0.4805265933188929 Q 2.6053079345669445 0.4322054833762109 2.5918854040273107 0.3879111325954191 Q 2.578462873487677 0.3436167818146273 2.5516178124084092 0.30804707588459745 Q 2.524772751329141 0.2724773699545677 2.4831629066562764 0.2523435741451169 Q 2.441553061983411 0.23220977833566603 2.386520686770912 0.23220977833566603 Q 2.33014605850445 0.23220977833566603 2.2892073403585664 0.2536858271990803 Q 2.248268622212683 0.27516187606249454 2.2214235611334154 0.31073158199252426 Q 2.194578500054148 0.3463012879225541 2.1818270960414954 0.39126676523032755 Q 2.1690756920288434 0.4362322425381011 2.1690756920288434 0.48321109942681967 M 2.9825007046406267 0.9583686805298591 L 2.9825007046406267 0.005369012215853397 L 3.3489357883726316 0.005369012215853397 Q 3.5073216487403114 0.005369012215853397 3.614030766530401 0.0691260322791144 Q 3.72073988432049 0.1328830523423753 3.7751011330060074 0.2409344231864281 Q 3.8294623816915245 0.3489857940304808 3.8294623816915245 0.4805265933188929 Q 3.8294623816915245 0.6254899231469389 3.7697321207901537 0.7328701674640099 Q 3.710001859888783 0.840250411781081 3.6019504890447305 0.8993095461554701 Q 3.4938991182006776 0.9583686805298591 3.3489357883726316 0.9583686805298591 L 2.9825007046406267 0.9583686805298591 M 3.5636962770067737 0.4805265933188929 Q 3.5636962770067737 0.40670267535090654 3.5381934689814694 0.35099917361142596 Q 3.512690660956165 0.2952956718719453 3.4643695510134833 0.2644238516307874 Q 3.416048441070801 0.23355203138962943 3.3489357883726316 0.23355203138962943 L 3.244240050163487 0.23355203138962943 L 3.244240050163487 0.7301856613560831 L 3.3489357883726316 0.7301856613560831 Q 3.4173906941247645 0.7301856613560831 3.4650406775404647 0.6979715880609618 Q 3.512690660956165 0.6657575147658406 3.5381934689814694 0.6087117599723965 Q 3.5636962770067737 0.5516660051789525 3.5636962770067737 0.4805265933188929 M 4.62273852436288 0.7301856613560831 L 4.62273852436288 0.9583686805298591 L 3.9435584790574056 0.9583686805298591 L 3.9435584790574056 0.005369012215853397 L 4.610658246877209 0.005369012215853397 L 4.610658246877209 0.23355203138962943 L 4.205297824580266 0.23355203138962943 L 4.205297824580266 0.36777733678596825 L 4.551599112502821 0.36777733678596825 L 4.551599112502821 0.5798533193121836 L 4.205297824580266 0.5798533193121836 L 4.205297824580266 0.7301856613560831 L 4.62273852436288 0.7301856613560831 M 4.744863234966579 0.9583686805298591 L 4.744863234966579 0.005369012215853397 L 5.00660258048944 0.005369012215853397 L 5.00660258048944 0.7301856613560831 L 5.43880806386565 0.7301856613560831 L 5.43880806386565 0.9583686805298591 L 4.744863234966579 0.9583686805298591 M 5.7502402652501114 0.005369012215853397 L 6.042851431014131 0.005369012215853397 L 6.3462006212098565 0.9583686805298591 L 6.080434516525106 0.9583686805298591 L 6.02271763520468 0.7717955060289482 L 5.769031808005599 0.7717955060289482 L 5.7126571797391374 0.9583686805298591 L 5.445548822000423 0.9583686805298591 L 5.7502402652501114 0.005369012215853397 M 5.981107790531815 0.5973026090137077 L 5.896545848132122 0.2617393455228606 L 5.807957146570537 0.5973026090137077 L 5.981107790531815 0.5973026090137077 M 7.236103909635598 0.7140786247085225 Q 7.236103909635598 0.7999828201621793 7.189796179273861 0.8536729423207149 Q 7.143488448912125 0.9073630644792504 7.065637771782248 0.9328658725045548 Q 6.987787094652371 0.9583686805298591 6.8938293808749345 0.9583686805298591 L 6.425383065041712 0.9583686805298591 L 6.425383065041712 0.005369012215853397 L 6.978391323274628 0.005369012215853397 Q 7.045503975972797 0.005369012215853397 7.09449621244246 0.040938718145883235 Q 7.143488448912125 0.07650842407591307 7.16966238346441 0.1328830523423753 Q 7.195836318016696 0.18925768060883763 7.195836318016696 0.24965906803719007 Q 7.195836318016696 0.3154294676813961 7.16160886514063 0.37717310816371197 Q 7.127381412264564 0.4389167486460278 7.058926506512431 0.4697885688871858 Q 7.140803942804197 0.4939491238585268 7.188453926219898 0.5543505112868792 Q 7.236103909635598 0.6147518987152317 7.236103909635598 0.7140786247085225 M 6.970337804950847 0.6603885025499869 Q 6.970337804950847 0.6362279475786459 6.961613160100085 0.6181075313501402 Q 6.952888515249323 0.5999871151216345 6.938123731655726 0.5892490906899274 Q 6.923358948062129 0.5785110662582202 6.903225152252678 0.5785110662582202 L 6.687122410564572 0.5785110662582202 L 6.687122410564572 0.7382391796798634 L 6.8938293808749345 0.7382391796798634 Q 6.915305429738348 0.7382391796798634 6.932754719439872 0.7288434083021198 Q 6.950204009141396 0.7194476369243761 6.960270907046122 0.7019983472228519 Q 6.970337804950847 0.684549057521328 6.970337804950847 0.6603885025499869 M 6.687122410564572 0.22818301917377593 L 6.687122410564572 0.37448860205578527 L 6.865642066741703 0.37448860205578527 Q 6.883091356443227 0.37448860205578527 6.899198393090788 0.36844846331295 Q 6.915305429738348 0.36240832457011474 6.926043454170055 0.3463012879225541 Q 6.9367814786017625 0.33019425127499336 6.9367814786017625 0.3006646840877989 Q 6.9367814786017625 0.27381962300853113 6.9280568337510005 0.25838371288795214 Q 6.919332188900238 0.24294780276737316 6.905238531833623 0.23556541097057448 Q 6.891144874767007 0.22818301917377593 6.873695585065484 0.22818301917377593 L 6.687122410564572 0.22818301917377593" fill="#382d5e" fill-rule="nonzero"></path></g><g></g><g clip-path="url(#SvgjsClipPath1019)"><g clip-path="url(#SvgjsClipPath1018a3bd4587-7e60-45c9-90e9-cf9d6b895e6f)"><path d=" M -2.16581860372485 0.19302994108818267 L -1.9279565088116848 0.19302994108818267 L -1.9135588031927286 0.20772759890753328 L -1.9135588031927286 1.1075842000922707 L -1.0137022020079893 1.1075842000922707 L -0.9990045441886388 1.1219819057112268 L -0.9990045441886388 1.3601439528247876 L -1.0137022020079893 1.3745416584437424 L -1.8448697493022923 1.3745416584437424 C -2.0224414519360816 1.3745416584437424 -2.126724833606712 1.3285489877165226 -2.1577198943141864 1.2365636462620817 C -2.1728067857148305 1.1895742490981953 -2.1801020476528343 1.1404325540991425 -2.1793164527426216 1.0910868290705495 L -2.1793164527426216 0.20772759890753328 Z" fill="#e37f7c" transform="matrix(1,0,0,1,0,0)" fill-rule="evenodd"></path></g><g clip-path="url(#SvgjsClipPath1018a3bd4587-7e60-45c9-90e9-cf9d6b895e6f)"><path d=" M -0.41439770561895584 0.7731374966519438 L -0.6525597527325155 0.7731374966519438 L -0.6669574583514717 0.7584398388325932 L -0.6669574583514717 -0.1414167623521443 L -1.5668140595362083 -0.1414167623521443 L -1.581511717355559 -0.15581446797110032 L -1.581511717355559 -0.400275511292954 L -1.5668140595362083 -0.4149731691123047 L -0.7353465600415132 -0.4149731691123047 C -0.5581747936749162 -0.4149731691123047 -0.4539913960710831 -0.3688805143182869 -0.4227963672300139 -0.27669520473025 C -0.40756458383860106 -0.2297396989045716 -0.4002657249849242 -0.18057377468188163 -0.40119980880157846 -0.13121838753871723 L -0.40119980880157846 0.7584398388325932 Z" fill="#004a80" transform="matrix(1,0,0,1,0,0)" fill-rule="evenodd"></path></g><g clip-path="url(#SvgjsClipPath1018a3bd4587-7e60-45c9-90e9-cf9d6b895e6f)"><path d=" M -1.5803119085539805 0.1930299410881831 L -1.0002043529902198 0.1930299410881831 L -1.0002043529902198 0.772837544451549 L -1.5803119085539805 0.772837544451549 Z" fill="#c84449" transform="matrix(1,0,0,1,0,0)" fill-rule="nonzero"></path></g></g></g><defs><clipPath id="SvgjsClipPath1019"><path d=" M -2.1805162615442004 -0.4149731691123047 h 1.7805162615442005 v 1.7883150187544685 h -1.7805162615442005 Z"></path></clipPath><clipPath id="SvgjsClipPath1018a3bd4587-7e60-45c9-90e9-cf9d6b895e6f"><path d=" M -2.1805162615442004 -0.4149731691123047 L -0.3999999999999999 -0.4149731691123047 L -0.3999999999999999 1.3733418496421639 L -2.180516261544201 1.3733418496421639 Z"></path></clipPath></defs></svg>